<?xml version="1.0" encoding="UTF-8" standalone="no"?>
<!-- Created with Inkscape (http://www.inkscape.org/) -->

<svg
   xmlns:dc="http://purl.org/dc/elements/1.1/"
   xmlns:cc="http://creativecommons.org/ns#"
   xmlns:rdf="http://www.w3.org/1999/02/22-rdf-syntax-ns#"
   xmlns:svg="http://www.w3.org/2000/svg"
   xmlns="http://www.w3.org/2000/svg"
   xmlns:sodipodi="http://sodipodi.sourceforge.net/DTD/sodipodi-0.dtd"
   xmlns:inkscape="http://www.inkscape.org/namespaces/inkscape"
   width="210mm"
   height="297mm"
   viewBox="0 0 210 297"
   version="1.1"
   id="svg4730"
   sodipodi:docname="logoGoats.svg"
   inkscape:version="0.92.1 r15371">
  <defs
     id="defs4724" />
  <sodipodi:namedview
     id="base"
     pagecolor="#ffffff"
     bordercolor="#666666"
     borderopacity="1.0"
     inkscape:pageopacity="0.0"
     inkscape:pageshadow="2"
     inkscape:zoom="0.24748737"
     inkscape:cx="1087.0554"
     inkscape:cy="-201.98244"
     inkscape:document-units="mm"
     inkscape:current-layer="layer1"
     showgrid="false"
     inkscape:window-width="1465"
     inkscape:window-height="696"
     inkscape:window-x="598"
     inkscape:window-y="912"
     inkscape:window-maximized="0" />
  <metadata
     id="metadata4727">
    <rdf:RDF>
      <cc:Work
         rdf:about="">
        <dc:format>image/svg+xml</dc:format>
        <dc:type
           rdf:resource="http://purl.org/dc/dcmitype/StillImage" />
      </cc:Work>
    </rdf:RDF>
  </metadata>
  <g
     inkscape:label="Layer 1"
     inkscape:groupmode="layer"
     id="layer1">
    <g
       transform="matrix(3.8521082,0,0,3.8521082,-351.92866,-624.19415)"
       id="g4703">
      <text
         id="text4502-0-0"
         y="170.75455"
         x="122.43005"
         style="font-style:normal;font-variant:normal;font-weight:normal;font-stretch:normal;font-size:5.45701933px;line-height:1.25;font-family:Centaur;-inkscape-font-specification:Centaur;letter-spacing:0px;word-spacing:0px;fill:#000000;fill-opacity:1;stroke:none;stroke-width:0.13642548"
         xml:space="preserve"><tspan
           style="font-style:normal;font-variant:normal;font-weight:normal;font-stretch:normal;font-size:3.58803415px;line-height:0;font-family:Centaur;-inkscape-font-specification:Centaur;text-align:center;text-anchor:middle;stroke-width:0.13642548"
           y="175.2989"
           x="122.43005"
           id="tspan4500-0-0"
           sodipodi:role="line" /><tspan
           id="tspan4542-8"
           style="font-style:normal;font-variant:normal;font-weight:normal;font-stretch:normal;font-size:3.58803415px;line-height:0;font-family:Centaur;-inkscape-font-specification:Centaur;text-align:center;text-anchor:middle;stroke-width:0.13642548"
           y="182.12018"
           x="122.43005"
           sodipodi:role="line" /></text>
      <g
         style="fill:#000000"
         transform="matrix(0.0026559,8.7481102e-5,-8.7481102e-5,0.0026559,122.71342,172.4422)"
         id="g4508">
        <path
           style="fill:#000000;stroke-width:1.82592058"
           inkscape:connector-curvature="0"
           d="m -1402.6418,-103.59683 c 81.4909,-3.48751 163.1097,-5.4595 244.6916,-3.25014 30.7668,1.58855 61.7892,2.50151 92.063,8.782681 8.6,2.099809 17.8027,4.108321 24.7227,9.987791 4.1631,3.304916 3.871,9.385231 1.2601,13.54833 -5.8977,9.896489 -15.9403,16.268952 -25.6542,21.929305 -17.0906,9.166121 -34.6377,17.492319 -52.6778,24.613409 -38.4537,13.7857 -76.2869,29.17821 -114.6495,43.164761 -76.1042,27.863547 -152.8111,53.99247 -228.9157,81.819498 -73.9132,26.914065 -147.6257,54.741095 -218.9096,88.064145 -64.1263,30.49288 -127.2849,63.81592 -185.0388,105.35561 -31.1867,21.94757 -60.8944,45.94016 -89.2327,71.41175 -9.4398,6.90198 -16.415,16.5611 -25.6905,23.66393 -7.5046,5.80643 -13.7675,13.00056 -20.5234,19.62865 -5.7151,5.82468 -11.9965,11.15637 -17.0177,17.62013 -7.5046,10.09734 -17.8756,17.60188 -25.3438,27.73573 -22.5684,24.50386 -43.4022,50.55974 -63.3047,77.27296 -20.6329,30.01813 -42.0509,60.58404 -52.3674,95.97038 -4.1083,12.50756 -5.3682,27.27926 2.5746,38.59996 10.1702,13.09185 25.782,20.10339 40.4074,26.98711 36.9933,16.41502 75.1731,29.98161 113.189,43.82209 45.0089,16.17766 90.2368,31.75276 135.5198,47.21831 31.0772,10.68163 62.4284,20.74245 92.9211,33.04916 27.334,11.06508 53.9377,24.75948 76.6704,43.76731 20.8155,17.5471 38.5817,38.41737 54.8141,60.21886 24.3943,32.73894 45.6115,67.6688 68.3258,101.57591 14.1146,21.5459 29.5618,42.5805 39.4036,66.5549 5.9342,14.3699 8.3809,30.8032 3.4509,45.8306 -6.1168,19.7199 -19.5375,36.1532 -34.1448,50.3223 -26.0012,27.0054 -58.2104,46.6888 -88.119,68.892 -8.6914,6.975 -18.7885,13.4936 -23.2439,24.1752 -3.6884,8.8557 1.3146,18.0401 5.7881,25.5811 9.6772,14.8813 22.185,27.608 33.7065,41.0467 41.4121,46.1776 81.4543,93.9071 114.8504,146.3293 36.2445,56.2566 71.3386,114.3757 119.9813,161.101 64.0352,61.3509 141.1436,106.9441 219.786,146.9318 -29.9997,-12.5989 -59.2876,-26.8776 -88.7945,-40.6085 -39.2756,-19.0626 -78.8431,-37.833 -115.7997,-61.1866 -32.1362,-19.9208 -61.9352,-43.5299 -88.5571,-70.3527 -47.0723,-47.8391 -84.0837,-104.2053 -121.7526,-159.4211 -34.8568,-52.4952 -71.5211,-104.0957 -114.5583,-150.2367 -6.9932,-6.9568 -14.6804,-13.2928 -20.5598,-21.2538 -6.9566,-9.586 -17.4739,-15.4838 -25.3621,-24.1386 -8.1801,-8.7829 -17.5288,-16.5064 -24.5951,-26.2568 -7.1394,-8.7461 -15.1915,-17.5836 -17.7297,-28.9043 -1.7348,-9.4765 6.4636,-16.5428 13.457,-21.3267 14.9359,-9.6957 31.2598,-17.0176 46.2322,-26.695 26.275,-16.7985 51.217,-36.208 71.8864,-59.6711 11.5946,-13.4388 22.1119,-30.4565 19.0628,-48.9894 -2.9397,-15.7395 -13.53,-28.8313 -24.997,-39.4399 -12.964,-14.1326 -28.8676,-25.14294 -44.9724,-35.34984 -33.5604,-20.50508 -71.5944,-35.53241 -111.2899,-36.68274 -14.0415,0.73037 -28.4843,3.25014 -40.718,10.53556 -15.7029,10.07908 -23.9378,27.95484 -27.6262,45.70282 -4.9482,19.2634 -3.9255,39.2755 -3.7429,58.9772 1.6068,24.4673 6.5915,48.5695 8.7825,72.982 0.2921,8.7462 -1.5886,18.9529 -9.3305,24.23 -6.2264,4.9117 -15.0821,2.1363 -20.9433,-2.0085 -18.2227,-14.2604 -28.247,-35.9159 -36.6097,-56.8957 -13.2197,-33.4508 -22.824,-68.2164 -30.5477,-103.29231 -5.2769,-24.32108 -9.1661,-49.04422 -9.6408,-73.94978 0.9129,-14.69866 3.5425,-30.31028 13.2197,-41.99617 10.2799,-12.43452 25.0518,-19.92079 39.5676,-26.29326 22.6415,-9.60434 46.8167,-15.13688 71.0649,-18.78872 12.3432,-2.09981 24.9055,-1.82592 37.3766,-2.04521 17.1088,0.0913 34.236,0 51.3449,0.87644 -31.2781,-11.59459 -63.6151,-20.01209 -95.3131,-30.3468 -37.2853,-11.35722 -74.2419,-23.77348 -110.9064,-36.99315 -47.4739,-17.16365 -94.0349,-36.81056 -141.7281,-53.42643 -44.7534,-16.45155 -91.0222,-29.41558 -138.4413,-35.34982 -36.135,-4.36395 -72.4526,-7.15761 -108.8249,-8.25316 -15.849,-2.48326 -32.0084,-0.20086 -47.8026,-3.01277 -18.5514,-1.09556 -37.5592,-1.77115 -55.2706,-7.88798 4.93,-5.11258 12.1241,-6.46376 18.5148,-8.91049 28.2835,-9.65912 55.4167,-23.0979 79.2997,-41.15625 37.4497,-28.24699 65.441,-66.51829 93.542,-103.56621 37.0296,-49.6833 73.5846,-99.91437 115.4347,-145.70846 38.5269,-41.88662 80.1579,-81.01609 125.3311,-115.6538 33.4144,-25.50811 68.6912,-49.06249 107.1818,-66.2444 26.9323,-12.03281 56.1653,-19.28172 85.7452,-19.42779 36.0984,-0.78515 71.6126,7.88797 107.711,7.39498 28.3018,-0.0548 55.9645,-7.50454 82.3856,-17.12714 34.9116,-12.72666 68.545,-28.61217 102.4889,-43.65776 38.7643,-17.382762 77.8938,-34.071675 117.9727,-48.222559 69.0746,-24.394298 139.8109,-43.584723 210.4374,-62.902962 30.8397,-8.581826 61.8987,-16.688914 92.0996,-27.443585 12.471,-4.929986 25.0699,-10.407747 35.5324,-18.989574 -12.0876,-7.194127 -26.6585,-7.248904 -40.2616,-7.668866 -20.5962,-2.191105 -41.4484,-1.935476 -62.0447,0.01826 -15.0456,0.748628 -30.1643,-0.438221 -45.1733,1.059034 -8.6366,1.314663 -17.3828,1.022516 -26.0742,1.132071 -9.1478,-0.07304 -18.1312,2.099808 -27.2608,1.789402 -11.0652,-0.346925 -21.9475,2.209364 -32.9945,1.898957 -70.6632,5.003022 -141.308,10.517302 -211.7703,18.240946 -77.9851,8.307939 -155.9154,17.784466 -233.1334,31.7527581 -88.3745,16.0863599 -176.3658,38.2165169 -258.3131,75.7026649 -96.4817,44.041203 -182.866,107.802343 -260.084,179.980983 -10.426,8.39924 -19.2269,18.55135 -28.813,27.84528 -10.1521,10.53557 -21.3267,20.13991 -30.4381,31.62495 -43.4204,46.03145 -83.2437,95.6052 -118.5753,148.17345 -29.2329,45.06372 -58.5755,91.71599 -70.7179,144.72246 -5.3499,20.50509 -7.4862,43.45691 -22.0571,59.99975 -8.0888,9.73215 -21.6006,10.86422 -33.3595,11.53981 -30.146,-0.27388 -59.2512,-10.09734 -89.3606,-10.64511 -54.3394,-1.20511 -106.9442,14.86299 -160.5714,20.92505 -7.6507,0.58429 -15.7577,1.35118 -22.9519,-1.93548 4.3457,-8.08883 12.5076,-12.85448 19.8295,-17.91228 24.3761,-15.9768 49.8659,-30.85806 70.6632,-51.56399 21.8927,-21.1259 38.3443,-47.20005 51.6735,-74.38801 17.8758,-36.71926 30.7668,-75.64788 41.6493,-114.94169 10.3894,-38.47215 19.1904,-77.40077 25.435,-116.76762 4.3822,-28.57566 8.0341,-57.49823 5.8978,-86.43907 -2.2459,-13.56659 -5.1857,-28.21047 -15.21,-38.34433 -5.8612,-6.46376 -13.9683,-10.31645 -22.1119,-13.05534 -16.1046,-4.49176 -32.5926,-7.54105 -49.172,-9.69563 -13.6214,-1.05904 -27.8818,-1.13207 -40.5537,4.63783 -11.6129,5.47777 -19.6104,16.39677 -24.4856,27.97311 -13.2379,30.6572 -17.5836,64.05329 -24.3578,96.49989 -9.7504,50.68756 -19.9938,101.26555 -29.3423,152.02614 -5.843,34.74727 -14.6439,68.89199 -21.8563,103.38362 -13.6944,62.37345 -30.0729,124.69212 -57.6261,182.55554 -15.0273,29.08691 -29.799,58.37468 -47.5287,85.92782 -30.2737,47.85737 -63.6698,93.85231 -101.1194,136.378 -13.1284,13.65789 -26.6585,26.93233 -40.152,40.26155 -14.0596,12.79971 -29.2513,24.32131 -43.0918,37.34011 -19.9208,16.415 -36.5914,36.9931 -47.8573,60.2553 -17.2367,34.0535 -27.0602,72.416 -25.0517,110.7239 1.6434,32.337 13.4388,63.5785 30.7851,90.7117 17.6566,27.8818 41.3205,51.1075 62.6108,76.1226 15.6298,18.314 30.1824,38.3991 36.9931,61.8074 11.4485,37.1026 6.3177,76.5609 -0.493,114.0103 -8.8922,45.1735 -21.7284,89.4701 -34.236,133.7487 -14.5708,49.3181 -31.6797,98.1067 -54.595,144.2477 -16.3968,33.6884 -34.4369,66.555 -51.6736,99.8232 -14.8082,29.1417 -29.2512,59.1415 -34.729,91.6427 -3.6153,20.286 -2.4284,42.4164 7.815,60.7119 8.3444,15.0275 23.9743,24.1023 39.6042,29.9634 17.2732,6.4272 36.208,6.1716 54.102,2.8486 27.827,-5.1676 54.1203,-16.1779 79.9023,-27.5168 40.3711,-18.0584 79.7014,-38.3078 119.4152,-57.6991 12.4163,-5.989 24.8508,-11.9598 37.6505,-17.0724 7.8149,-3.031 15.9037,-6.2446 24.449,-5.8248 1.3147,4.8386 -2.3919,8.7828 -5.1673,12.2703 -7.4863,8.3078 -15.6664,16.0132 -24.2847,23.1708 -30.073,25.6359 -61.9901,49.0077 -94.108,71.9962 -27.3888,19.8841 -55.7636,38.8737 -80.1396,62.483 -23.2623,23.9561 -36.4272,55.3252 -46.5245,86.6399 -3.3962,9.8783 -5.9525,20.0669 -10.3165,29.5984 -1.9172,3.3962 -4.0718,8.0521 -8.6731,7.9062 -8.947,-7.468 -11.2294,-19.5375 -15.6664,-29.7442 -6.0985,-17.7115 -14.0048,-34.6925 -21.1076,-52.0022 -10.1704,-18.5697 -17.9671,-38.3992 -29.4339,-56.2384 -6.5915,-9.6955 -12.3249,-20.5779 -22.3492,-27.206 -3.7432,-2.6113 -8.7279,-1.7896 -12.6902,-0.2191 -5.4595,5.3864 -7.9245,12.9457 -9.3487,20.3225 -3.6153,14.6619 -5.4412,29.7075 -5.5143,44.8079 -2.2276,37.8696 5.6604,76.2139 23.0614,109.9569 13.9866,28.3931 32.7205,54.102 52.4587,78.7339 23.5726,29.1234 49.2086,56.5852 76.5061,82.2575 23.317,21.4363 47.62,42.197 75.0636,58.2104 24.2117,14.2421 51.4179,23.5178 79.4823,25.855 45.0089,3.4145 89.9448,-4.1996 133.7122,-14.0415 110.9064,-24.9237 214.8743,-72.763 324.8677,-100.9004 74.8263,-19.8477 152.0079,-27.8635 228.2582,-40.0605 45.1734,-7.2854 90.4013,-15.7394 133.6939,-30.8398 58.8859,-20.2677 112.8419,-53.2984 159.9324,-93.8341 47.0539,-40.5354 89.2692,-86.4208 128.49,-134.4973 30.913,-37.7781 59.3059,-77.5285 86.4027,-118.1003 5.788,-7.9245 10.3165,-17.1272 18.4601,-23.0066 -0.1096,11.284 -5.5143,21.4911 -9.9878,31.5517 -16.5246,34.2179 -38.235,65.6238 -60.6936,96.1897 -39.3486,52.6595 -82.3675,102.4889 -127.431,150.2732 -18.953,19.9754 -39.0564,38.8009 -58.3201,58.4658 -26.6949,23.317 -53.4447,46.8899 -83.0974,66.5001 -46.3054,32.7752 -98.8554,54.8873 -150.4924,77.6564 -29.9816,13.9865 -60.3649,29.4703 -83.262,53.9377 -15.8307,14.388 -26.3663,33.4141 -35.2585,52.6412 -13.7309,32.8483 -18.1314,68.8738 -16.9446,104.2784 1.1139,47.4922 10.8095,94.327 21.5824,140.4682 20.286,84.0652 46.9077,166.3779 72.3247,248.9825 22.9336,75.2095 46.7619,150.7113 57.5165,228.8242 1.4608,10.5356 1.5156,21.272 0.7669,31.8988 -2.0998,-0.055 -4.1631,-0.2373 -6.1898,-0.5476 -4.437,-5.1492 -7.4863,-11.2476 -10.4991,-17.2368 -18.0583,-34.9845 -31.8258,-71.9594 -46.634,-108.3684 -53.6273,-133.1825 -102.0872,-268.7207 -163.7668,-398.5072 -14.5161,-32.1362 -31.3328,-63.1586 -48.6791,-93.8158 -25.1246,-43.6941 -53.4446,-85.6539 -86.3844,-123.8521 -7.8878,-7.9611 -16.2325,-15.4475 -23.8466,-23.6822 -8.4175,-9.5315 -19.1356,-16.5613 -29.8172,-23.2442 -13.6214,-7.9245 -29.9634,-12.0876 -45.6481,-9.1296 -20.1033,2.9217 -39.5494,9.1479 -58.8311,15.3743 15.8307,25.3437 39.2025,44.6985 58.7946,67.0112 22.6962,25.1065 44.7168,52.2761 56.0193,84.6499 11.5398,33.4142 8.8557,69.9508 0.2556,103.7304 -9.0566,37.5957 -24.0839,73.3472 -38.746,109.0074 -9.1662,22.0756 -20.0486,43.3293 -29.7078,65.1856 -6.3907,13.6578 -14.2056,26.5852 -21.418,39.8414 -6.5551,10.6999 -12.6536,22.4223 -23.317,29.6894 -1.3329,-3.2864 -2.9215,-6.5183 -2.2094,-10.1154 1.7529,-16.0681 5.8065,-31.7893 9.2209,-47.547 10.426,-45.7942 20.7242,-91.8622 24.1204,-138.7882 4.1266,-48.2956 -2.9032,-97.0476 -16.8897,-143.3165 -10.7912,-37.687 -26.0924,-73.8767 -41.8866,-109.6832 -5.6056,-12.3796 -10.7912,-24.9419 -14.4431,-38.0339 -9.4217,2.41 -18.8617,4.8752 -28.1192,7.8514 12.5624,30.8944 32.7753,57.8268 46.8714,87.9727 17.821,37.1392 26.8593,77.8938 31.698,118.6301 2.9397,22.952 2.2824,46.1592 2.0452,69.2756 -1.9902,39.3666 -12.964,77.5103 -23.9562,115.1606 -19.0261,60.7301 -29.0322,123.9983 -33.4507,187.3577 -2.7754,20.6146 -1.2599,42.0327 -7.815,61.9902 -4.8934,-3.944 -6.0803,-10.2982 -7.5045,-16.0316 -8.8192,-41.3388 -8.4358,-83.7915 -7.6689,-125.8424 4.0901,-77.0904 25.1612,-152.519 25.1977,-229.938 -1.7163,-89.6527 -28.4478,-176.0737 -51.8744,-261.8736 -7.8879,1.0956 -15.6664,2.8852 -23.4083,4.7111 8.3628,21.0527 14.4613,42.8909 21.5824,64.382 20.4321,65.6418 35.9341,134.6068 28.667,203.6812 -2.5381,41.9779 -12.0328,83.1159 -17.6751,124.7288 -4.7292,32.483 -9.1661,65.1669 -8.2532,98.0702 -1.3512,41.3023 6.7011,82.1847 16.6342,122.0993 5.8246,24.1022 12.3067,48.0581 19.0991,71.9048 4.6378,17.5105 10.0973,35.0029 10.9372,53.2438 0.2557,-3.2136 0.2192,-6.3542 0.6939,-9.44 2.1546,3.1588 -0.6756,7.5776 -1.1503,11.1199 -5.1126,-0.7302 -7.6141,-6.2995 -10.4808,-9.9696 -20.6694,-33.0126 -36.9932,-68.5268 -52.1118,-104.3513 -27.2975,-67.7234 -50.6145,-138.1127 -56.64,-211.2955 -2.7024,-22.4041 -1.972,-45.0272 -2.1364,-67.5591 -0.4199,-88.9589 21.1624,-176.1466 25.7455,-264.7767 0.3469,-25.5082 -3.2319,-51.6371 -13.3657,-75.1913 -11.0469,-0.3288 -21.9293,2.3735 -32.9762,1.9171 -41.9414,1.0955 -85.3617,-6.0436 -121.7889,-27.8271 -15.922,-9.0383 -29.1599,-21.6919 -41.704,-34.8385 -25.7637,-23.9744 -41.4484,-56.6766 -67.4312,-80.4685 -9.3487,-8.326 -16.762,-18.6609 -26.9506,-26.0377 -10.0061,-7.6871 -19.2087,-16.3967 -29.6712,-23.463 -11.4851,-8.7462 -18.807,-21.3085 -27.6992,-32.4101 -18.6427,-27.4799 -29.9086,-59.3242 -37.4862,-91.4604 -9.8965,-40.9189 -14.6621,-83.0428 -14.0231,-125.1121 -1.132,-78.1857 19.2452,-155.6779 53.2804,-225.7202 19.1539,-40.2069 41.4484,-78.7886 63.3229,-117.5346 19.4096,-35.3133 41.3024,-70.8275 47.547,-111.3264 3.6336,-33.7065 -3.378,-67.2304 -9.1661,-100.2796 -4.4735,-22.8605 -8.5271,-45.8306 -12.9823,-68.6728 -37.6505,1.5155 -75.3375,0.073 -113.0062,-0.018 -39.8234,-2.0633 -79.5919,-5.076 -119.2144,-9.8965 -85.2157,-10.006 -170.1027,-22.897 -254.4238,-38.7277 -35.0394,-6.8472 -69.8049,-15.3743 -103.694,-26.6767 -34.8385,-12.0876 -69.6223,-26.2203 -99.3848,-48.4235 -13.0736,-10.9372 -26.1655,-23.6274 -30.7668,-40.5902 -4.2726,-14.1509 0.2191,-30.3285 11.2112,-40.2067 13.877,-12.745 32.1544,-18.9714 49.6102,-25.0882 44.5707,-14.4978 90.3283,-25.1794 134.4608,-41.0649 28.4478,-9.7322 55.3254,-23.5544 80.3588,-40.1338 24.9055,-16.5611 50.9249,-31.8623 79.5188,-41.1014 76.433,-25.5812 157.1935,-34.9664 233.6996,-60.3285 29.1051,-9.4217 57.0052,-22.6779 82.4951,-39.6407 5.5873,-3.8892 12.0328,-7.3219 15.3194,-13.5848 30.219,-56.27491 75.4106,-102.17856 116.512,-150.40112 46.4332,-53.28036 89.2693,-109.99345 124.0348,-171.63653 52.623,-92.3368 83.0246,-195.08134 109.6648,-297.36941 7.961,-31.62495 16.4333,-63.28641 20.4503,-95.6965 -0.073,-13.2014 2.5928,-27.77225 -4.51,-39.67725 -6.6829,-10.38949 -19.5191,-13.01881 -30.9676,-13.877 -41.9962,-3.50576 -84.3391,-3.94398 -125.9155,-11.43026 -11.1016,-2.1911 -22.5136,-5.56905 -31.0954,-13.29269 -3.305,-2.81192 -5.7699,-7.88798 -2.5563,-11.70415 5.9707,-8.21665 16.2141,-11.44853 25.2342,-15.11863 29.9268,-10.64511 60.9127,-17.9488 91.1499,-27.64443 39.2208,-12.14237 76.6887,-29.06866 114.9417,-43.8221 35.0212,-13.54833 71.0101,-24.68644 107.7659,-32.39183 17.8757,-3.59706 36.0254,-6.79242 54.3394,-6.50027 9.8599,0.38344 21.1989,2.46499 27.1331,11.26593 6.8655,10.75467 6.3727,24.08389 7.9795,36.2993 2.2641,72.74467 -7.395,145.14241 -17.894,216.99239 -5.0943,36.66448 -10.7547,73.23767 -15.5021,109.92041 -3.5605,25.70896 -6.2446,51.72833 -3.9987,77.6564 1.5155,7.50453 6.555,18.53309 15.8855,16.48806 7.121,-4.71087 11.0468,-12.67188 14.9177,-19.99383 9.1296,-18.69742 16.342,-38.25303 24.7413,-57.27912 24.0473,-56.47572 53.7733,-110.66905 89.9631,-160.31582 41.3936,-56.91395 89.4883,-108.71531 140.9428,-156.64572 53.8281,-49.50071 112.0202,-94.58268 175.197,-131.575833 79.2085,-46.652269 165.8117,-79.847504 254.6794,-102.744547 87.5894,-22.623156 177.1508,-36.554929 266.9498,-46.816603 99.2751,-11.247305 199.043,-17.711069 298.848,-22.184577 M -3359.4077,1134.5416 c -41.0833,8.0523 -82.0387,17.0359 -122.1176,29.2147 -16.9446,5.423 -33.9621,11.0469 -49.592,19.6652 -15.7577,8.874 -29.9999,20.213 -46.068,28.5391 -15.1004,8.0524 -30.8215,14.9178 -46.8166,20.9799 -68.8372,26.3663 -140.3037,45.082 -209.6339,70.0058 -7.1211,2.5928 -14.4065,5.2769 -19.8295,10.7912 10.7546,3.4144 22.1119,3.0127 33.25,3.597 17.7662,-0.1278 35.5507,-0.1278 53.3169,-0.986 -4.1449,-1.479 -8.801,0.4748 -12.7084,-1.6433 19.446,2.6111 38.8556,-1.3512 58.119,-3.7979 45.4654,-6.7194 88.9589,-21.9293 132.5071,-36.0254 38.1982,-12.398 77.0903,-22.5684 116.3476,-31.0224 36.8654,-7.815 74.0046,-14.7535 111.6003,-17.894 21.9841,-1.333 44.9359,-1.7712 65.6783,6.7741 7.2855,2.8302 13.4023,7.7602 19.6287,12.3432 -8.6366,-42.2518 -12.7267,-86.7494 -0.8034,-128.7821 -26.8593,9.0931 -55.1976,12.5258 -82.8785,18.2409 z"
           id="path4504" />
        <path
           style="fill:#000000;stroke-width:1.82592058"
           inkscape:connector-curvature="0"
           d="m -2419.296,1177.5603 c 25.0516,-14.936 54.6863,-20.5599 83.6089,-19.4095 38.2165,1.4424 75.9035,8.9105 113.0244,17.6384 26.275,6.4637 52.55,13.1466 78.0947,22.0936 10.7729,4.1448 22.2397,8.4538 30.0363,17.3828 5.1674,5.6968 5.7334,14.2969 2.9033,21.2172 -5.5143,14.1508 -17.3645,24.2482 -27.9731,34.5829 -22.5136,19.5008 -48.2043,35.5142 -75.9401,46.4879 -22.7144,8.9653 -47.6017,13.8588 -71.9962,10.7912 -31.3328,-2.7389 -60.6571,-15.1916 -89.178,-27.6079 -22.9153,-10.0973 -46.7618,-19.5191 -72.0143,-21.0894 -25.7637,-2.3554 -50.4684,6.7194 -75.5018,10.9921 -4.1813,0.9677 -8.5088,0 -11.7224,-2.8485 0.913,-6.9932 5.8247,-12.5075 10.0791,-17.7844 15.4655,-17.9671 33.0309,-33.9622 50.6875,-49.7016 17.7482,-15.3195 35.5326,-30.9311 55.8917,-42.7448 z"
           id="path4506" />
      </g>
      <text
         id="text4502-0"
         y="183.15317"
         x="122.39856"
         style="font-style:normal;font-variant:normal;font-weight:normal;font-stretch:normal;font-size:5.84520006px;line-height:1.25;font-family:Centaur;-inkscape-font-specification:Centaur;letter-spacing:0px;word-spacing:0px;fill:#000000;fill-opacity:1;stroke:none;stroke-width:0.14613"
         xml:space="preserve"><tspan
           id="tspan4542"
           style="font-style:normal;font-variant:normal;font-weight:normal;font-stretch:normal;font-size:2.26723409px;line-height:0;font-family:Centaur;-inkscape-font-specification:Centaur;text-align:center;text-anchor:middle;fill:#000000;stroke-width:0.14613"
           y="183.15317"
           x="122.39856"
           sodipodi:role="line">Generic Open Architecture Teaching Simulator</tspan></text>
      <text
         id="text4502"
         y="181.08328"
         x="102.17346"
         style="font-style:normal;font-variant:normal;font-weight:normal;font-stretch:normal;font-size:7.51152658px;line-height:1.25;font-family:Centaur;-inkscape-font-specification:Centaur;letter-spacing:0px;word-spacing:0px;fill:#000000;fill-opacity:1;stroke:none;stroke-width:0.18778816"
         xml:space="preserve"><tspan
           style="font-style:normal;font-variant:normal;font-weight:normal;font-stretch:normal;font-size:14.02151775px;font-family:Centaur;-inkscape-font-specification:Centaur;fill:#000000;stroke-width:0.18778816"
           y="181.08328"
           x="102.17346"
           id="tspan4500"
           sodipodi:role="line">G  ATS</tspan></text>
    </g>
  </g>
</svg>
